<svg width="100" height="100" viewBox="0 0 100 100" fill="none" xmlns="http://www.w3.org/2000/svg">
<rect width="100" height="100" fill="#E5E5E5"/>
<g id="Desktop" clip-path="url(#clip0_3045_2)">
<rect width="1510" height="4549" transform="translate(-305 -863)" fill="white"/>
<g id="Group 4">
<g id="features">
<g id="features_1">
<g id="icon_1">
<path id="Vector" d="M62.7594 88.1257H25.5927C22.0968 88.1146 18.748 86.7182 16.2799 84.2423C13.8119 81.7665 12.426 78.4132 12.426 74.9173V37.8757C12.437 34.387 13.8277 31.0444 16.2946 28.5776C18.7614 26.1107 22.1041 24.72 25.5927 24.709H36.7177C37.2702 24.709 37.8001 24.9285 38.1908 25.3192C38.5815 25.7099 38.801 26.2398 38.801 26.7923C38.801 27.3449 38.5815 27.8748 38.1908 28.2655C37.8001 28.6562 37.2702 28.8757 36.7177 28.8757H25.5927C23.2091 28.8866 20.9263 29.8383 19.2408 31.5238C17.5554 33.2093 16.6037 35.4921 16.5927 37.8757V74.9173C16.5927 77.3081 17.5395 79.6016 19.2262 81.2961C20.9128 82.9905 23.2019 83.948 25.5927 83.959H62.7594C63.9467 83.959 65.1225 83.7251 66.2195 83.2707C67.3164 82.8164 68.3132 82.1503 69.1528 81.3107C69.9924 80.4712 70.6584 79.4744 71.1128 78.3774C71.5672 77.2804 71.801 76.1047 71.801 74.9173V67.5007C71.801 66.9481 72.0205 66.4182 72.4112 66.0275C72.8019 65.6368 73.3318 65.4173 73.8844 65.4173C74.4369 65.4173 74.9668 65.6368 75.3575 66.0275C75.7482 66.4182 75.9677 66.9481 75.9677 67.5007V74.9173C75.9677 78.4204 74.5761 81.78 72.0991 84.257C69.622 86.7341 66.2624 88.1257 62.7594 88.1257Z" fill="#FF4343"/>
<path id="Vector_2" d="M73.7177 39.3756C73.1793 39.3761 72.6616 39.1681 72.2733 38.7952C71.8849 38.4223 71.6559 37.9136 71.6344 37.3756C71.5514 35.8318 71.0627 34.3371 70.2177 33.0423C69.5375 31.9667 68.6266 31.0559 67.551 30.3756C66.3 29.5675 64.8687 29.0808 63.3844 28.959C63.1107 28.9483 62.8418 28.8837 62.5932 28.7689C62.3445 28.6542 62.1209 28.4916 61.9351 28.2903C61.7494 28.0891 61.6051 27.8532 61.5106 27.5962C61.4161 27.3391 61.3732 27.066 61.3844 26.7923C61.3726 26.2647 61.5657 25.7529 61.923 25.3645C62.2803 24.9761 62.7742 24.7412 63.301 24.709C65.6146 24.8121 67.8586 25.5313 69.801 26.7923C71.3831 27.7885 72.7215 29.127 73.7177 30.709C74.9787 32.6514 75.6979 34.8954 75.801 37.209C75.8122 37.4826 75.7693 37.7558 75.6748 38.0128C75.5803 38.2699 75.436 38.5058 75.2503 38.707C75.0645 38.9082 74.8409 39.0709 74.5922 39.1856C74.3435 39.3003 74.0747 39.3649 73.801 39.3756H73.7177Z" fill="#FF4343"/>
<path id="Vector_3" d="M54.4259 58.5006H44.1343C43.5817 58.5006 43.0518 58.2811 42.6611 57.8904C42.2704 57.4997 42.0509 56.9698 42.0509 56.4172V45.9172C42.0477 45.3736 42.257 44.8503 42.6343 44.4589L63.4676 23.6256C63.8571 23.2438 64.3806 23.03 64.926 23.03C65.4713 23.03 65.9948 23.2438 66.3843 23.6256L70.0093 27.2506C70.391 27.64 70.6048 28.1636 70.6048 28.7089C70.6048 29.2542 70.391 29.7778 70.0093 30.1672C69.8156 30.3625 69.5852 30.5175 69.3313 30.6233C69.0774 30.729 68.8051 30.7835 68.5301 30.7835C68.2551 30.7835 67.9828 30.729 67.7289 30.6233C67.475 30.5175 67.2446 30.3625 67.051 30.1672L64.926 28.0839L46.0926 46.7922V54.3339H53.6343L72.5093 35.4172L70.3843 33.2922C70.0026 32.9028 69.7887 32.3792 69.7887 31.8339C69.7887 31.2886 70.0026 30.765 70.3843 30.3756C70.578 30.1803 70.8084 30.0253 71.0623 29.9195C71.3161 29.8138 71.5884 29.7593 71.8634 29.7593C72.1385 29.7593 72.4108 29.8138 72.6647 29.9195C72.9185 30.0253 73.1489 30.1803 73.3426 30.3756L76.9259 33.9589C77.1212 34.1526 77.2762 34.383 77.382 34.6369C77.4877 34.8907 77.5422 35.163 77.5422 35.4381C77.5422 35.7131 77.4877 35.9854 77.382 36.2393C77.2762 36.4931 77.1212 36.7236 76.9259 36.9172L56.0926 57.7506C55.8844 57.9873 55.628 58.1767 55.3405 58.3061C55.053 58.4354 54.7412 58.5018 54.4259 58.5006Z" fill="#FF4343"/>
<path id="Vector_4" d="M75.5927 37.5006C75.0363 37.506 74.4993 37.2971 74.0927 36.9173L70.5094 33.2923C70.1276 32.9028 69.9138 32.3793 69.9138 31.8339C69.9138 31.2886 70.1276 30.765 70.5094 30.3756C70.703 30.1803 70.9335 30.0254 71.1873 29.9196C71.4412 29.8138 71.7135 29.7594 71.9885 29.7594C72.2636 29.7594 72.5359 29.8138 72.7897 29.9196C73.0436 30.0254 73.274 30.1803 73.4677 30.3756L75.5927 32.5006L83.0927 24.9589L75.5927 17.4589L68.051 24.9589L70.176 27.0839C70.5578 27.4734 70.7716 27.997 70.7716 28.5423C70.7716 29.0876 70.5578 29.6112 70.176 30.0006C69.9824 30.1959 69.7519 30.3509 69.4981 30.4566C69.2442 30.5624 68.9719 30.6169 68.6969 30.6169C68.4218 30.6169 68.1495 30.5624 67.8957 30.4566C67.6418 30.3509 67.4114 30.1959 67.2177 30.0006L63.6344 26.4173C63.4342 26.2312 63.2752 26.0054 63.1676 25.7542C63.0599 25.5031 63.006 25.2322 63.0094 24.9589C63.0053 24.6794 63.0587 24.4021 63.1662 24.1441C63.2737 23.8861 63.4331 23.6529 63.6344 23.4589L74.0927 13.0423C74.2864 12.847 74.5168 12.692 74.7707 12.5862C75.0245 12.4805 75.2968 12.426 75.5719 12.426C75.8469 12.426 76.1192 12.4805 76.3731 12.5862C76.6269 12.692 76.8574 12.847 77.051 13.0423L87.5094 23.4589C87.8937 23.8554 88.1087 24.3859 88.1087 24.9381C88.1087 25.4903 87.8937 26.0208 87.5094 26.4173L77.051 36.9173C76.6596 37.2945 76.1363 37.5039 75.5927 37.5006Z" fill="#FF4343"/>
</g>
</g>
</g>
</g>
</g>
<defs>
<clipPath id="clip0_3045_2">
<rect width="1510" height="4549" fill="white" transform="translate(-305 -863)"/>
</clipPath>
</defs>
</svg>
