<svg width="100" height="100" viewBox="0 0 100 100" fill="none" xmlns="http://www.w3.org/2000/svg">
<rect width="100" height="100" fill="#E5E5E5"/>
<g id="Desktop" clip-path="url(#clip0_3045_2)">
<rect width="1510" height="4549" transform="translate(-706 -863)" fill="white"/>
<g id="Group 4">
<g id="features">
<g id="features_2">
<g id="icon_2">
<path id="Vector" d="M76.2682 71.6166H22.6848C18.5519 71.6166 14.5882 69.9748 11.6657 67.0524C8.74329 64.1299 7.10148 60.1662 7.10148 56.0333V26.8666C7.07947 24.8042 7.46599 22.7579 8.23876 20.8456C9.01152 18.9334 10.1552 17.193 11.6039 15.725C13.0526 14.2569 14.7776 13.0902 16.6795 12.2921C18.5813 11.494 20.6223 11.0803 22.6848 11.075H76.2682C80.3977 11.0859 84.355 12.7313 87.2751 15.6514C90.1951 18.5714 91.8405 22.5287 91.8515 26.6583V56.0333C91.8515 58.0797 91.4484 60.1061 90.6653 61.9968C89.8821 63.8874 88.7343 65.6053 87.2872 67.0524C85.8402 68.4994 84.1223 69.6473 82.2316 70.4304C80.341 71.2135 78.3146 71.6166 76.2682 71.6166ZM22.6848 15.2416C19.6569 15.2416 16.753 16.4444 14.612 18.5855C12.471 20.7265 11.2681 23.6304 11.2681 26.6583V56.0333C11.2681 59.0612 12.471 61.965 14.612 64.1061C16.753 66.2471 19.6569 67.45 22.6848 67.45H76.2682C79.296 67.45 82.1999 66.2471 84.341 64.1061C86.482 61.965 87.6848 59.0612 87.6848 56.0333V26.8666C87.7125 25.3499 87.4376 23.8429 86.8763 22.4336C86.315 21.0244 85.4784 19.7411 84.4155 18.6588C83.3526 17.5765 82.0847 16.7169 80.6858 16.1302C79.2869 15.5434 77.7851 15.2414 76.2682 15.2416H22.6848Z" fill="#FF4343"/>
<path id="Vector_2" d="M89.7673 55.7834H9.18398C8.63479 55.7727 8.11106 55.5498 7.72264 55.1614C7.33423 54.773 7.11131 54.2492 7.10065 53.7C7.10065 53.1475 7.32014 52.6176 7.71084 52.2269C8.10154 51.8362 8.63145 51.6167 9.18398 51.6167H89.7673C90.3198 51.6167 90.8498 51.8362 91.2404 52.2269C91.6311 52.6176 91.8506 53.1475 91.8506 53.7C91.8506 54.2526 91.6311 54.7825 91.2404 55.1732C90.8498 55.5639 90.3198 55.7834 89.7673 55.7834Z" fill="#FF4343"/>
<path id="Vector_3" d="M49.4206 87.7416C48.8681 87.7416 48.3382 87.5221 47.9475 87.1314C47.5568 86.7407 47.3373 86.2108 47.3373 85.6583V69.5333C47.3373 68.9807 47.5568 68.4508 47.9475 68.0601C48.3382 67.6694 48.8681 67.45 49.4206 67.45C49.9732 67.45 50.5031 67.6694 50.8938 68.0601C51.2845 68.4508 51.504 68.9807 51.504 69.5333V85.6583C51.504 86.2108 51.2845 86.7407 50.8938 87.1314C50.5031 87.5221 49.9732 87.7416 49.4206 87.7416Z" fill="#FF4343"/>
<path id="Vector_4" d="M73.4936 87.7419H25.1603C24.6078 87.7419 24.0779 87.5224 23.6872 87.1317C23.2965 86.741 23.077 86.2111 23.077 85.6585C23.077 85.106 23.2965 84.5761 23.6872 84.1854C24.0779 83.7947 24.6078 83.5752 25.1603 83.5752H73.4936C74.0462 83.5752 74.5761 83.7947 74.9668 84.1854C75.3575 84.5761 75.577 85.106 75.577 85.6585C75.577 86.2111 75.3575 86.741 74.9668 87.1317C74.5761 87.5224 74.0462 87.7419 73.4936 87.7419Z" fill="#FF4343"/>
</g>
</g>
</g>
</g>
</g>
<defs>
<clipPath id="clip0_3045_2">
<rect width="1510" height="4549" fill="white" transform="translate(-706 -863)"/>
</clipPath>
</defs>
</svg>
