<svg width="100" height="100" viewBox="0 0 100 100" fill="none" xmlns="http://www.w3.org/2000/svg">
<path d="M66.4917 67.2832C66.1469 67.2871 65.8066 67.2055 65.5011 67.0455C65.1957 66.8855 64.9348 66.6522 64.7417 66.3665C64.5878 66.135 64.4818 65.8751 64.4299 65.602C64.3779 65.3289 64.3812 65.0482 64.4394 64.7764C64.4977 64.5046 64.6097 64.2472 64.769 64.0194C64.9282 63.7916 65.1315 63.5979 65.3667 63.4498C70.7266 60.0024 74.826 54.9119 77.0513 48.9402C79.2767 42.9686 79.5084 36.4368 77.7118 30.3224C75.9152 24.2081 72.1869 18.8399 67.0848 15.0213C61.9827 11.2027 55.7812 9.13894 49.4084 9.13894C43.0355 9.13894 36.834 11.2027 31.7319 15.0213C26.6298 18.8399 22.9015 24.2081 21.1049 30.3224C19.3083 36.4368 19.54 42.9686 21.7654 48.9402C23.9908 54.9119 28.0902 60.0024 33.45 63.4498C33.6957 63.59 33.9103 63.7787 34.0807 64.0045C34.2511 64.2303 34.3737 64.4884 34.4411 64.7632C34.5085 65.0379 34.5192 65.3235 34.4727 65.6025C34.4261 65.8815 34.3232 66.1481 34.1702 66.386C34.0173 66.624 33.8174 66.8283 33.583 66.9865C33.3485 67.1447 33.0842 67.2535 32.8063 67.3062C32.5284 67.359 32.2426 67.3546 31.9665 67.2933C31.6903 67.2321 31.4296 67.1152 31.2 66.9498C25.0822 63.0161 20.4029 57.2069 17.8623 50.3916C15.3217 43.5764 15.0566 36.1217 17.1066 29.1431C19.1566 22.1646 23.4114 16.0377 29.2343 11.6792C35.0572 7.32081 42.135 4.96533 49.4084 4.96533C56.6818 4.96533 63.7596 7.32081 69.5825 11.6792C75.4054 16.0377 79.6602 22.1646 81.7102 29.1431C83.7602 36.1217 83.495 43.5764 80.9545 50.3916C78.4139 57.2069 73.7345 63.0161 67.6167 66.9498C67.2846 67.1733 66.892 67.2897 66.4917 67.2832Z" fill="#FF4343"/>
<path d="M66.4917 83.7417H32.325C31.7758 83.731 31.2521 83.5081 30.8637 83.1197C30.4753 82.7313 30.2524 82.2076 30.2417 81.6584V65.2C30.2524 64.6508 30.4753 64.1271 30.8637 63.7387C31.2521 63.3503 31.7758 63.1274 32.325 63.1167C32.8776 63.1167 33.4075 63.3362 33.7982 63.7269C34.1889 64.1176 34.4084 64.6475 34.4084 65.2V79.575H64.4084V65.2C64.4084 64.6475 64.6279 64.1176 65.0186 63.7269C65.4093 63.3362 65.9392 63.1167 66.4917 63.1167C67.0409 63.1274 67.5646 63.3503 67.953 63.7387C68.3414 64.1271 68.5644 64.6508 68.575 65.2V81.6584C68.5644 82.2076 68.3414 82.7313 67.953 83.1197C67.5646 83.5081 67.0409 83.731 66.4917 83.7417Z" fill="#FF4343"/>
<path d="M38.4918 93.9084C37.9392 93.9084 37.4093 93.6889 37.0186 93.2982C36.6279 92.9075 36.4084 92.3776 36.4084 91.8251V84.4918C36.4191 83.9426 36.642 83.4189 37.0304 83.0304C37.4189 82.642 37.9426 82.4191 38.4918 82.4084C39.0443 82.4084 39.5742 82.6279 39.9649 83.0186C40.3556 83.4093 40.5751 83.9392 40.5751 84.4918V91.8251C40.5751 92.3776 40.3556 92.9075 39.9649 93.2982C39.5742 93.6889 39.0443 93.9084 38.4918 93.9084Z" fill="#FF4343"/>
<path d="M60.3251 93.9084C59.7726 93.9084 59.2427 93.6889 58.852 93.2982C58.4613 92.9075 58.2418 92.3776 58.2418 91.8251V84.4918C58.2418 83.9392 58.4613 83.4093 58.852 83.0186C59.2427 82.6279 59.7726 82.4084 60.3251 82.4084C60.8743 82.4191 61.398 82.642 61.7864 83.0304C62.1748 83.4189 62.3978 83.9426 62.4084 84.4918V91.8251C62.4084 92.3776 62.1889 92.9075 61.7982 93.2982C61.4075 93.6889 60.8776 93.9084 60.3251 93.9084Z" fill="#FF4343"/>
<path d="M49.4083 83.7417C48.8558 83.7417 48.3259 83.5222 47.9352 83.1315C47.5445 82.7408 47.325 82.2109 47.325 81.6584V48.325C47.325 47.7725 47.5445 47.2426 47.9352 46.8519C48.3259 46.4612 48.8558 46.2417 49.4083 46.2417C49.9609 46.2417 50.4908 46.4612 50.8815 46.8519C51.2722 47.2426 51.4917 47.7725 51.4917 48.325V81.6584C51.4917 82.2109 51.2722 82.7408 50.8815 83.1315C50.4908 83.5222 49.9609 83.7417 49.4083 83.7417Z" fill="#FF4343"/>
</svg>
