<svg width="100" height="100" viewBox="0 0 100 100" fill="none" xmlns="http://www.w3.org/2000/svg">
<path d="M29.4917 87.4082C27.991 87.3711 26.5373 86.8769 25.325 85.9916C24.0462 85.0723 23.0994 83.7638 22.6262 82.2616C22.153 80.7594 22.1789 79.1445 22.7 77.6583L27.95 61.4916C28.1552 60.8537 28.1529 60.1672 27.9432 59.5308C27.7336 58.8944 27.3275 58.3409 26.7833 57.9499L13.0333 47.9499C11.7964 47.045 10.8741 45.7752 10.396 44.3191C9.91787 42.8629 9.90801 41.2936 10.3678 39.8316C10.8275 38.3695 11.7338 37.0883 12.9593 36.1679C14.1847 35.2474 15.6677 34.7341 17.2 34.6999H34.2C34.8393 34.7146 35.4681 34.5353 36.0035 34.1858C36.539 33.8362 36.9561 33.3328 37.2 32.7416L42.45 16.5333C42.8942 15.0382 43.814 13.7289 45.0698 12.8039C46.3256 11.879 47.8488 11.389 49.4083 11.4083C50.9557 11.3904 52.4677 11.871 53.7208 12.7789C54.974 13.6869 55.9016 14.974 56.3667 16.4499L61.6167 32.7416C61.8318 33.3683 62.2356 33.9131 62.7728 34.301C63.31 34.689 63.9541 34.9011 64.6167 34.9083H81.6583C83.1906 34.9424 84.6736 35.4558 85.899 36.3762C87.1245 37.2966 88.0308 38.5779 88.4905 40.0399C88.9503 41.5019 88.9404 43.0713 88.4623 44.5274C87.9842 45.9836 87.0619 47.2533 85.825 48.1583L72.075 58.1583C71.5308 58.5492 71.1247 59.1027 70.9151 59.7392C70.7054 60.3756 70.7031 61.0621 70.9083 61.6999L76.2 77.9083C76.7099 79.3994 76.7259 81.0152 76.2456 82.5162C75.7653 84.0172 74.8142 85.3235 73.5333 86.2416C72.2906 87.1779 70.7768 87.6843 69.2208 87.6843C67.6648 87.6843 66.1511 87.1779 64.9083 86.2416L51.1583 76.2416C50.6162 75.8577 49.9684 75.6516 49.3042 75.6516C48.6399 75.6516 47.9921 75.8577 47.45 76.2416L33.6583 86.2416C32.4228 87.0505 30.9676 87.4579 29.4917 87.4082ZM17.1583 38.9916C16.4896 38.9726 15.8333 39.1745 15.2909 39.5662C14.7486 39.9579 14.3505 40.5175 14.1583 41.1583C13.9421 41.7913 13.9347 42.4769 14.1372 43.1145C14.3397 43.752 14.7414 44.3077 15.2833 44.6999L29.075 54.6999C30.3507 55.6224 31.2978 56.929 31.7776 58.4284C32.2574 59.9279 32.2448 61.5415 31.7417 63.0333L26.4917 79.0749C26.2685 79.7073 26.2577 80.3952 26.4607 81.0343C26.6637 81.6734 27.0695 82.2289 27.6167 82.6166C28.1483 83.0254 28.8002 83.2471 29.4708 83.2471C30.1415 83.2471 30.7933 83.0254 31.325 82.6166L45.2417 72.6166C46.4859 71.7027 47.9895 71.2099 49.5333 71.2099C51.0772 71.2099 52.5807 71.7027 53.825 72.6166L67.4917 82.7416C68.0233 83.1504 68.6752 83.3721 69.3458 83.3721C70.0165 83.3721 70.6683 83.1504 71.2 82.7416C71.7471 82.3539 72.153 81.7984 72.356 81.1593C72.559 80.5202 72.5481 79.8323 72.325 79.1999L67.075 63.0333C66.5718 61.5415 66.5592 59.9279 67.039 58.4284C67.5189 56.929 68.4659 55.6224 69.7417 54.6999L83.4917 44.6999C84.0225 44.3057 84.4165 43.7551 84.6186 43.1256C84.8207 42.496 84.8206 41.819 84.6184 41.1895C84.4163 40.5599 84.0221 40.0095 83.4912 39.6153C82.9604 39.2212 82.3194 39.003 81.6583 38.9916H64.6167C63.0882 38.9726 61.6039 38.4764 60.3712 37.5725C59.1386 36.6685 58.2192 35.402 57.7417 33.9499L52.4083 17.7416C52.2161 17.1008 51.8181 16.5412 51.2757 16.1495C50.7334 15.7579 50.077 15.5559 49.4083 15.5749C48.7396 15.5559 48.0833 15.7579 47.5409 16.1495C46.9986 16.5412 46.6005 17.1008 46.4083 17.7416L41.075 33.9499C40.5974 35.402 39.6781 36.6685 38.4454 37.5725C37.2128 38.4764 35.7284 38.9726 34.2 38.9916H17.1583Z" fill="#FF4343"/>
</svg>
