<svg width="100" height="102" viewBox="0 0 100 102" fill="none" xmlns="http://www.w3.org/2000/svg">
<path d="M49.2998 90.2278C38.8016 90.2278 28.7334 85.9995 21.3101 78.473C13.8868 70.9466 9.71643 60.7386 9.71643 50.0947C9.71643 39.4507 13.8868 29.2427 21.3101 21.7163C28.7334 14.1898 38.8016 9.96155 49.2998 9.96155C49.8523 9.96155 50.3822 10.1841 50.7729 10.5802C51.1636 10.9763 51.3831 11.5136 51.3831 12.0738C51.3831 12.634 51.1636 13.1713 50.7729 13.5674C50.3822 13.9635 49.8523 14.1861 49.2998 14.1861C43.4567 14.151 37.6958 15.5822 32.5306 18.3521C27.3654 21.122 22.9565 25.1447 19.6967 30.0614C16.4369 34.9782 14.4276 40.6363 13.8478 46.5314C13.2681 52.4265 14.136 58.3755 16.3741 63.848C18.6122 69.3205 22.151 74.1466 26.6751 77.8961C31.1991 81.6455 36.5679 84.2018 42.3028 85.3371C48.0377 86.4724 53.9605 86.1514 59.5434 84.4028C65.1263 82.6541 70.1957 79.5322 74.2998 75.3151C74.485 75.0928 74.7136 74.9117 74.9711 74.7831C75.2287 74.6545 75.5097 74.5814 75.7964 74.5681C76.0832 74.5549 76.3696 74.6018 76.6376 74.7061C76.9056 74.8104 77.1495 74.9697 77.3539 75.174C77.5584 75.3784 77.7189 75.6233 77.8256 75.8936C77.9322 76.1638 77.9826 76.4535 77.9736 76.7444C77.9646 77.0353 77.8964 77.3212 77.7733 77.5841C77.6501 77.8471 77.4748 78.0814 77.2581 78.2723C73.6151 82.0485 69.2663 85.0506 64.4659 87.1033C59.6654 89.1561 54.5097 90.2182 49.2998 90.2278Z" fill="#FF4343"/>
<path d="M48.0497 63.6131C47.7795 63.6219 47.5105 63.5739 47.2595 63.4721C47.0085 63.3703 46.781 63.2169 46.5914 63.0216L29.9247 46.1235C29.7294 45.9271 29.5744 45.6935 29.4687 45.4361C29.3629 45.1787 29.3084 44.9026 29.3084 44.6238C29.3084 44.3449 29.3629 44.0688 29.4687 43.8114C29.5744 43.554 29.7294 43.3204 29.9247 43.1241C30.3211 42.7343 30.8517 42.5164 31.4039 42.5164C31.956 42.5164 32.4866 42.7343 32.883 43.1241L48.0497 58.5436L82.008 24.1136C82.4003 23.7159 82.9324 23.4924 83.4872 23.4924C84.042 23.4924 84.5741 23.7159 84.9664 24.1136C85.3587 24.5114 85.5791 25.0508 85.5791 25.6133C85.5791 26.1758 85.3587 26.7153 84.9664 27.1131L49.5497 63.0216C49.3508 63.2161 49.1158 63.3686 48.8583 63.4701C48.6008 63.5717 48.3259 63.6203 48.0497 63.6131Z" fill="#FF4343"/>
</svg>
